<svg xmlns="http://www.w3.org/2000/svg" version="1.0" width="200" height="162">
  <path d="m277.31179 707.85871 16.16789-36.74521c-10.21867-7.97896-28.41628-20.57732-28.13633-44.09425-.15048-35.46342 48.17981-57.73579 85.87881-57.32253 50.11347-.06999 88.04852 26.1066 87.97853 57.11256-.06999 41.99452-58.72234 69.29096-118.63454 54.80286l-43.25436 26.24657z" style="fill:#e9e9fb;fill-opacity:1;stroke:#404040;stroke-width:5.41958618px;stroke-linejoin:round;stroke-opacity:1" transform="translate(-251.42857 -557.07648)"/>
  <path d="M301.63307 617.23054c-.11133-.09536-.27009-.2304-.47629-.40514-.04743-.04743-.07514-.19797-.08313-.4516-.00799-.25363-.02771-.38045-.05917-.38045-.04792-.07938-.0956-.36495-.14303-.85673-.04744-.33301-.07115-.5789-.07115-.73766 0-.11084.00774-.19022.02323-.23815.04792-.0634.00048-.55505-.14231-1.47496-.14279-.91989-.21418-1.46309-.21418-1.62961 0-.1665-.02384-.41626-.07151-.74928-.04768-.333-.07152-.58276-.07152-.74928 0-.16649-.02372-.41238-.07115-.73766-.04744-.32526-.07116-.56703-.07115-.72532v-1.57043c-.00001-.17473.04743-.69821.1423-1.57044.22217-.69796.33325-1.13407.33326-1.30834-.00001.0794.11907-.1268.35721-.61859l.47556-.97508c.19022-.27007.30131-.38115.33325-.33325.12682.00001.29332.02373.49952.07115.01597.01599.11109.03196.28534.04792.11084.00002.17824.04358.2022.13069.02396.08714.05167.17838.08314.27372.0634.15829.0951.26139.09511.30929v1.71275c.0634.26961.15876.61061.28606 1.02299.1423.26962.37222.56294.68974.87997.06341.06342.24976.3133.55906.74964.30929.43637.46394.6664.46394.69011 0 .02373.13879.17438.41639.45196.27758.2776.41638.42439.41639.44035-.00001.09488.26959.4199.80881.97508.04743.03195.32502.26187.83278.68974.26959.19072.68199.4763 1.23718.85674.22167.15876.35648.26186.4044.30929.15827.04744.36447.11085.6186.19023.14277.07938.2616.11907.35648.11907.17473 0 .2621-.24588.26211-.73766v-3.97293c-.00001-.11083.01572-.45982.04719-1.04695l.02396-1.0702c-.00001-.17472.02383-.42859.07151-.76162.04767-.333.07151-.58687.07152-.76162-.00001-.06339-.008-.28532-.02396-.66578l-.04792-.49952c-.00001.11085.0634.02349.19023-.26211.07937-.15826.15076-.31678.21418-.47556.39641-.3964.61059-.6026.64255-.61859.01596.03197.11906.02809.30929-.01161.19022-.03968.28533-.05952.28534-.05954-.00001.01599.10309.10324.3093.26174.20618.15854.30928.24578.30929.26174-.00001.07891.11107.15805.33326.23742-.09537.00001-.14305.36497-.14303 1.09487-.00002.2217-.05544.59029-.16627 1.10577-.11085.51551-.16628.92403-.16626 1.22557-.00002.04744-.008.35674-.02396.92788l-.04792.90393c-.00001.17426-.02373.43201-.07115.77324-.04745.34125-.07117.59101-.07116.74928v5.90057c-.15877.14279-.42063.32503-.78558.54671-.2217.07939-.34851.10335-.38045.07188-.01598-.03194-.10311-.03993-.26137-.02396-.15878.03147-.25413.03945-.28606.02396-.07891-.09535-.44363-.14303-1.09416-.14303-.04744 0-.18624-.04755-.41638-.14267-.23017-.09511-.34525-.15851-.34524-.19022-.00001-.0317-.13868-.15864-.41602-.38081-.27736-.22217-.45572-.35697-.5351-.40441-.17474-.07938-.4683-.30155-.88069-.66651l-.61859-.54671-.40441-.33326c-.19023-.15875-.46782-.38867-.83277-.68974-.11085-.07938-.49929-.46805-1.16531-1.16603-.12682-.12681-.28558-.33301-.47628-.61859-.04744-.09486-.21395-.21369-.49952-.35649h-.04719c-.33302.00001-.49953.18225-.49952.54671v.90393c-.00001.07939.02371.34923.07115.80954l.07115.68974v1.30834c0 .03195-.00799.23016-.02396.59463l-.04719.5714v1.023c0 .39642-.02372.67401-.07115.83277-.01598.06341-.1509.22193-.40477.47556-.25388.25363-.38856.3727-.40405.35722zm17.37936-12.22879c-.00001.12683-.07939.03946-.23815-.2621-.0789-.15827-.15804-.32478-.23741-.49952-.03195-.03145-.14304-.08288-.33326-.15429-.19023-.07138-.3093-.10708-.35721-.10709-.33302.00001-.58665.04745-.7609.1423-.06341.03196-.28558.23816-.66651.6186-.15828.26961-.36448.58689-.61859.95184-.11084.11086-.28921.54697-.5351 1.30834-.24588.76138-.36883 1.23331-.36883 1.41579 0 .18248-.04356.45209-.13069.80881-.08712.35674-.13068.62247-.13068.7972v1.56971c.01597.07938.04767.31753.09511.71443 0 .22169.05542.63384.16626 1.23645.06341.2701.19821.69048.40441 1.26115.14279.34898.42038.76138.83277 1.23718.09536.03194.21443.07962.35722.14303.03146.03146.23354.11459.60625.24939.3727.13481.55905.22205.55905.26174 0 .03969.40441.09923 1.21323.17861-.26961 0-.05543-.02372.64255-.07115.38092-.03195.73789-.05591 1.07091-.07188.07938-.01549.51549-.15029 1.30834-.40441.19021 0 .60261-.22991 1.23718-.68974-.00001.15876.17049.11919.5115-.11871.34099-.2379.51149-.37669.5115-.41639-.00001-.03969.16649-.17062.49952-.39279.333-.22216.51548-.34898.54744-.38044l1.4274-1.42741c-.00001-.19022-.02373-.39642-.07115-.61859-.01599-.03194-.19048-.12706-.52348-.28534l-.5714-.2621c-.06342-.07938-.29333.07914-.68974.47556l-.8807.88069c-.2851.28558-1.10964.76937-2.47363 1.45137-.30156.09487-.64256.20571-1.023.33253-.31753-.01549-.65853-.01549-1.023 0-.03195.03195-.15102.03993-.35721.02396-.15877-.04744-.40466-.10286-.73767-.16627-.12682 0-.31704-.11907-.57067-.35721-.11133-.0789-.34124-.36423-.68974-.85601-.19071-.25411-.3018-.42062-.33326-.49952-.03195-.1907-.06365-.38117-.09511-.5714-.07938-.22216-.16675-.63456-.2621-1.23718 0-.15827.03969-.59438.11907-1.30833.03194-.23814.12706-.63456.28534-1.18927.07937-.31751.13504-.49999.16699-.54743.22168-.4758.3802-.75339.47556-.83278.19022-.17424.3727-.44385.54744-.80881.31703-.65053.53109-.9758.64218-.97581.11108.00001.26174-.18223.45197-.54671zm-.33326.21418c.04792.00001.20668-.07138.47629-.21418.2696-.14278.4044-.23402.4044-.27372 0-.03968.36472-.33712 1.09416-.89231.19021-.09486.58663-.23765 1.18926-.42837.30154-.06339.4603-.07912.47628-.04719 0 .03147.11108.03147.33326 0 .30106-.04791.45958-.07187.47556-.07188.60261.00001.92763.02397.97508.07188l.40441.40441c.0479.04744.17496.21395.38117.49952.20619.28559.30928.44423.3093.47592-.00002.03171.1585.39655.47556 1.09451.06339.53922.17448 1.35602.33325 2.45041-.12683.69798-.19024 1.08641-.19022 1.1653-.00002.28558-.18249.99929-.54744 2.14111-.01599.01598-.10323.1152-.26174.29768-.15853.18248-.23779.28945-.23778.32091-.00001.01598.19433.20245.58301.55942.38867.35697.58301.55918.58302.60661-.00001.07938.25362-.05542.76089-.40441l.40441-.76162c.20618-.57067.35696-1.14158.45233-1.71274.04742-.22217.11083-.57115.19022-1.04696.01596-.33301.03169-.53122.04719-.59463.04791-.20619.07187-.61858.07188-1.23718-.00001-.14278-.02385-.34898-.07151-.61859-.04769-.2696-.07153-.4758-.07152-.61859-.00001-.65005-.06342-1.10988-.19022-1.37949-.04745-.07937-.19024-.49176-.42837-1.23718-.36449-.58712-.57068-.88068-.61859-.8807.04791.00002-.17402-.25362-.66578-.76089-.41241-.26959-.67016-.4044-.77324-.40441-.10311.00001-.25377-.03568-.45197-.10709-.19822-.07138-.345-.10708-.44034-.10709h-1.09415c-.36497.19023-.75365.28535-1.16603.28533-.15877.00002-.47605.1111-.95185.33326-.2062.07939-.4124.1745-.61859.28533-.03147.03196-.15429.09549-.36847.19059-.21419.09513-.345.1664-.39243.21382-.34899.15878-.87247.38869-1.57043.68974-.45983.46033-.71371.69049-.76162.69047-.0789.00002.49225.24566 1.71346.73694l-.2621.28606zm25.59239-2.78366c-.14231.09489-.30882.21372-.49952.35649-.06341.06342-.17426.28559-.33253.66651-.07938.19024-.19047.65007-.33326 1.37949-.09535.50776-.16675 1.17402-.21418 1.9988l-.07115 1.35625c-.03195.65007-.03195 1.18129 0 1.59368-.01598.01597-.02396.42837-.02396 1.23718.01597.07938.03969.31728.07115.7137.03195.38094.03195.58713 0 .61859.04743.42837.07115.89619.07115 1.40345-.03146.03195-.04719.34923-.04719.95184 0 .36496.07139.61884.21418.76163.01598.01549.04768.13831.09512.36846.04743.23016.087.36109.1187.39279.03171.03171.09524.19035.19059.47593l.40441.19022c.19022-.06341.32103-.14666.39243-.24976.07139-.1031.14678-.21805.22616-.34487 0-.38093.01984-.57926.05954-.595.03968-.01573.05953-.09499.05953-.23777 0-.19071-.01598-.46032-.04792-.80882l.07188-1.04696c0-.07938.01573-.32526.04719-.73766l.02396-.76162c0-.87222.02372-1.35577.07116-1.45064-.01598-.50774.00774-1.08688.07115-1.73743.03194-.0634.04791-.46781.04792-1.21322l.14303-1.23718.07115-1.23718c0-.12681.02371-.28533.07115-.47556l.14303-.68975.07116-.47628-.21419-.6186-.28533-.47555-.26138-.14231-.40513.07115zm4.09489 14.86942c0-.04744-.1348-.14255-.4044-.28534 0 .0789-.06365-.34148-.19095-1.26114-.06341-.38093-.09512-.6388-.09512-.7736 0-.1348-.01972-.36072-.05917-.67776-.03945-.31704-.05917-.55494-.05917-.71371v-1.30833c.01549-.36496.05494-.80107.11834-1.30834.14279-.41238.21419-.72967.21419-.95184 0-.58712.07139-1.02323.21418-1.30834.17474-.76137.40465-1.53872.68975-2.33205.06389-.17425.17497-.44385.33325-.80882.06341-.14278.17449-.39641.33326-.7609l.28533-.4044c-.09487.00001-.14231-.14278-.1423-.42837-.00001-.0634.02371-.1982.07115-.40441.22217-.1268.53945-.32525.95184-.59536.14231-.1268.21346-.18222.21346-.16626 0 .04745.15077.12272.45233.2258.30154.10311.45232.19435.45232.27372 0 .07939.24565.50776.73694 1.2851.20619.52325.53945 1.28439.99977 2.28341.8088 1.5068 1.21321 2.32384 1.21322 2.45113-.00001.04745.1308.25352.39243.61823.26161.36473.38056.57092.35685.61859-.02373.04769.05952.19834.24976.45197.19021.25363.28532.41215.28533.47556-.00001.06341.11907.2379.35722.52348.11083-.03146.19796-.04719.26137-.0472.0634.00001.11108.01574.14304.0472.04742.04792.1268.01622.23814-.09512.0634-.04743.11083-.10285.1423-.16626-.12682 0-.08713-.19046.11907-.5714.11084-.30106.21394-.68949.3093-1.1653.04742-.28557.08712-.44433.11907-.47629.09534-.25362.24588-.64206.4516-1.1653.15875-.30154.38891-.75363.69047-1.35625.11083-.2696.17424-.41239.19023-.42837.11083-.11083.24563-.41214.4044-.90393.09534-.14278.23813-.38866.42837-.73766.09486-.26959.26935-.63431.52348-1.09415.01547-.03193.15826-.27782.42837-.73766.06339-.11083.1268-.22966.19022-.35649.03145-.04791.17399-.14326.42764-.28606.41238-.09486.64254-.1423.69047-.14231.22215.00001.38067.04745.47556.14231.19021.17474.28532.28583.28534.33325-.00002.04745-.01188.12671-.03558.23778-.02373.1111-.03559.19447-.03558.25012-.00001.05568-.01187.13893-.03557.24976-.02374.11086-.03559.19024-.03558.23815-.00001-.09535-.02397.12658-.07188.66578-.03148.41241-.03148.6186 0 .61859.03193.04745.07162.22194.11907.52348.03193.19023.04791.32504.04792.40441-.00001.07939-.008.11908-.02396.11907-.04745.00001.01596.72968.19023 2.18903.22215.52324.34122.81656.35721.87996-.00001.60263.0237.92765.07115.97508.07937.09536.11906.43636.11908 1.023-.00002.12731.03568.32576.10709.59536.07138.26961.10707.44797.10709.53509-.00002.08713.03955.25364.11871.49952.07912.2459.13454.38868.16626.42837.03169.03969.11894.26174.26174.66615.14277.40441.21417.63832.21419.70172-.00002.06341-.01188.15465-.03558.27372-.02374.11907-.03559.21031-.03558.27372-.00001.36448-.04769.59439-.14303.68974-.2217.23766-.3565.35649-.40441.35649-.03147 0-.11461-.03557-.24939-.10673-.13482-.07115-.21807-.10673-.24976-.10673-.03172 0-.10711-.02783-.22617-.08349-.11908-.05566-.17862-.09935-.1786-.13105-.00002-.03171-.04358-.15852-.13069-.38045-.08714-.22193-.1307-.36859-.13069-.43998-.00001-.0714-.08327-.33314-.24976-.78522-.16652-.45208-.26575-.6941-.29768-.72605-.15877-.52323-.30955-1.05445-.45232-1.59367-.20622-.71394-.30931-1.21346-.3093-1.49856-.00001-.15875-.04358-.40077-.13069-.72604-.08714-.32526-.1307-.56316-.13069-.71371-.00001-.15052-.06342-.30118-.19022-.45196-.12683-.15077-.26962-.22615-.42837-.22616-.28559.00001-.45209.02397-.49952.07188-.09536.0789-.21443.20572-.35721.38044-.0155.07939-.06294.19822-.14231.35649-.03195.06342-.10335.26961-.21418.61859-.11085.349-.16628.53946-.16626.5714-.00002.49178-.07141.88022-.21419 1.1653-.01598.04793-.07963.23041-.19095.54744l-.21345.54744c-.04793.11085-.15902.36448-.33326.7609-.09536.07938-.14304.39666-.14303.95184-.00001.06341-.03571.19023-.10709.38045-.07141.19023-.1071.31729-.10709.38118-.00001.44385-.04745.66578-.14231.66578-.01598 0-.08738.05954-.21418.17861-.12683.11907-.2142.1786-.2621.1786h-.40441c-.03147-.03194-.26139-.28582-.68975-.76162l-.68974-.76162c-.06342-.06341-.26562-.32502-.60661-.78486-.34101-.45982-.51949-.72144-.53546-.78485-.30156-.36496-.65054-.88843-1.04696-1.57044-.2062-.45982-.43611-.94361-.68974-1.45136-.14279-.31704-.36496-.72943-.66651-1.23718-.06341-.04743-.15453-.21781-.27336-.51114-.11883-.29331-.17825-.43998-.17824-.43998-.00001 0-.09536-.13504-.28606-.40514-.03147-.01548-.10262-.0392-.21346-.07115-.11133-.03145-.21443-.03145-.3093 0-.11133.03195-.2304.15889-.35721.38081-.12682.22194-.19023.38856-.19022.49988-.00001.60263-.0397.95137-.11908 1.04623-.09535.30156-.21418.66652-.35648 1.09488-.01598.26961-.06366.58665-.14303.95112-.01598.34899-.05567.76139-.11908 1.23718-.03146.06342-.04719.28559-.04719.66651v.02396c0 .22169-.01597.55071-.04792.98706-.03195.43636-.04792.76538-.04792.98706v1.11811c0 .03195-.02372.11133-.07115.23814-.04744.12682-.07115.20608-.07115.23778 0 .03171-.04756.13093-.14267.29768s-.15066.25013-.16663.25013c-.01597 0-.08737.01573-.21418.04719-.06341.01597-.11883.02396-.16627.02396zm18.37041-.68975c-.1273-.06389-.20668-.11156-.23815-.14303-.12681-.28557-.19022-.61084-.19022-.9758 0-.33301.06341-.71346.19022-1.14135.33302-.6665.57092-1.20595.71371-1.61835.22217-.38044.49976-.95934.83277-1.7367.03146-.12681.19397-.43998.48754-.93951.29356-.49951.44035-.79694.44035-.89231 0-.22216.22991-.77734.68974-1.66554.03194-.0634.30954-.55494.83278-1.4746.15875-.23814.34898-.58712.57067-1.04696.20619-.38044.51548-.9672.92788-1.7603.41239-.79307.61859-1.20159.6186-1.22556-.00001-.02395.02395-.29755.07187-.8208.28509-.17423.44361-.26136.47556-.26138h.64255c.2696.00002.47967-.07936.63021-.23814.15053-.15874.33688-.29355.55906-.40441.09534-.04741.28581-.07113.5714-.07115l.26137.35649.7137 1.47533.6186 1.7367.49952 2.11715c-.00002.04744.14277.72145.42836 2.02203.12681.55519.28533 1.14208.47556 1.76066.0634.03196.15064.35722.26174.97581.11107.6186.19045.92789.23814.92789.04767 0 .09522.24589.14267.73766.04742.39642.07114.64618.07115.74928-.00001.1031.03968.3727.11908.80881.07936.43612.13503.6699.16699.70136.03144.03195.03144.20644 0 .52348-.04794.2062-.09561.52348-.14303.95185-.03196.25363-.05568.39642-.07116.42836-.19072.19023-.35722.28534-.49952.28534h-.52347c-.11134-.01597-.2067-.12706-.28607-.33326-.04744-.11084-.07915-.18998-.09511-.23741v-.61859c-.00001-.36496-.07915-.92813-.23742-1.68951-.09536-.53921-.22242-1.12609-.38117-1.76066-.04745-.03146-.10287-.18998-.16626-.47556-.06342-.28557-.10699-.42836-.13069-.42837-.02373.00001-.08327-.22204-.17861-.66615-.09537-.44409-.15889-.66614-.19059-.66614-.03171 0-.07128-.18635-.11871-.55906-.04744-.37269-.09512-.59075-.14303-.65417-.03147-.01596-.09875-.20231-.20184-.55905-.10311-.35672-.15466-.56292-.15464-.61859-.00002-.05566-.05955-.24201-.17861-.55906-.11908-.31703-.17862-.49938-.17861-.54707-.00001-.04767-.05543-.20631-.16626-.47592-.11086-.2696-.16628-.44409-.16627-.52348-.00001-.07937-.05156-.24987-.15465-.5115-.1031-.26161-.16663-.39242-.19058-.39243-.02397.00001-.07165-.12693-.14303-.38081-.07141-.25386-.12284-.3808-.15429-.38081-.26961.00001-.45209-.04742-.54744-.14231-.04744-.0479-.23766-.00047-.57067.14231-.06341.06342-.15853.1745-.28533.33325-.26962.57117-.40442.94387-.40441 1.11811-.00001.04745-.11109.29721-.33326.74928-.22217.4521-.3531.69798-.39279.73766-.0397.0397-.26574.47993-.67812 1.32068-.11085.28559-.30108.68201-.57068 1.18926-.04792.28559-.14303.59488-.28533.92789-.11133.04744-.4366.62634-.97581 1.7367-.04744.11133-.27336.42075-.67776.92825-.40441.50751-.62247.76126-.65417.76126-.03171 0-.09911.11097-.2022.33289-.1031.22193-.15465.3646-.15465.42801 0 .42836-.04768.73766-.14303.92788-.22217.45983-.33326.80882-.33326 1.04696 0 .17425-.07139.34874-.21418.52348-.09487.03146-.19797.06317-.3093.09511-.03146-.06341-.1106-.15053-.23741-.26138zm3.42548-6.59031c.50774.22217.78534.33713.83278.34487.04743.00775.19021.0276.42836.05954.25363.03146.38843.03146.40441 0 .28557-.04743.61858-.11084.99904-.19023.04791-.03194.1907-.0876.42837-.16699l.4044-.11907c.19022-.09486.42013-.1423.68975-.14231.0634.00001.23002.01586.49988.04756.26984.03171.4125.03958.428.0236.01597-.01597.1112-.04368.2857-.08314.17449-.03944.28545-.08312.33289-.13105.31752-.31703.48402-.49152.49952-.52348.11132-.17424.20667-.30105.28607-.38044.17424-.71346.54694.40465 1.11811 3.35433-.01599-.03146-.06367-.03146-.14303 0-.06342.01598-.13482.03993-.21419.07188-.03147 0-.11073-.08325-.23778-.24976-.12707-.1665-.1906-.24976-.19059-.24976-.26961-.2696-.45185-.40441-.54671-.40441-.03195 0-.17474-.01597-.42836-.04792l-.40441-.02396c-.23815.00001-.42862.0714-.5714.21418-.03147.03196-.17015.10734-.41602.22617-.2459.11883-.39268.17825-.44035.17824-.04769.00001-.26974.06341-.66615.19023-.39643.12682-.61049.2062-.64219.23814-.03171.03195-.2062.08749-.52347.16663-.31729.07914-.5155.11871-.59464.1187-.07914.00001-.25751.04756-.53509.14267-.2776.09512-.45608.14267-.53546.14267.01597 0-.3093.11109-.97581.33326-.04743.01597-.34874.13504-.90392.35721-.74541.38045-1.0944.57067-1.04696.57067-.04744 0 .74565-1.35601 2.37925-4.06803zm20.28282-9.57582c-.13457-.0237-.23356-.03556-.29696-.03557h-.47556c-.2062.00001-.44023.07128-.70208.21382-.26187.14256-.50389.27724-.72605.40404-.93563.25413-1.78414.76188-2.54551 1.52324l-.87997.87997c-.09536.09537-.2223.23416-.38081.41639-.15853.18225-.28546.32104-.38081.41639-.25364.2062-.53123.49953-.83278.87996-.04743.19072-.15828.49227-.33253.90466-.1273.15828-.30978.40393-.54743.73693-.11085.28559-.29333.65829-.54744 1.11811-.17426.20621-.34076.54721-.49952 1.023-.22217 1.11037-.33326 1.88773-.33326 2.33206v1.42741c0 .06341.03969.3727.11907.92788l.09512.85601c0 .07938.12294.3531.36883.82116.24588.46806.39666.70208.45232.70208.05567 0 .28171.12283.67813.36847.39642.24565.61036.36847.64182.36847.09536 0 .38892.02396.8807.07188l.87997.07115c.20619 0 .51548-.02384.92788-.07151.41239-.04768.72967-.07152.95185-.07152.0634 0 .30529-.0674.72568-.2022.42037-.13481.67025-.22592.74964-.27336.61859-.30155 1.33229-.84875 2.14111-1.64159.42787-.41239.6498-.63432.66579-.66578.11131-.1273.26209-.37319.45232-.73767.14278-.28557.24588-.46006.3093-.52347.14277-.25363.32501-.57091.54671-.95185.06388-.09535.17109-.34124.32164-.73766.15052-.39642.22579-.65017.2258-.76126-.00001-.11108.01184-.29344.03557-.54708.02371-.25362.03557-.44385.03558-.57067-.00001-.04791.01596-.24636.04792-.59536l.02396-.57067c-.00001-.07937-.02385-.19046-.07152-.33325-.04769-.14278-.07152-.25387-.07151-.33326h-1.49856l-1.16603.04792c-.11085.00001-.30108.02385-.57067.07152-.26962.04768-.45597.07152-.55906.07151-.1031.00001-.29345.04757-.57103.14267-.2776.09512-.46407.14268-.55942.14267-.50727.00001-.84827.04744-1.023.1423-.04744.03196-.13069.11533-.24976.25013-.11908.13481-.17861.22605-.1786.27371-.00001.04769-.03172.16664-.09512.35686-.06341.19023-.09512.2972-.09511.32091-.00001.02372-.04744.23403-.1423.63093-.04793.23767-.04793.38021 0 .42764.01548.01598.04706.08738.09475.21419.04767.12682.07949.19023.09547.19022.23765.00001.38044.02397.42837.07188.0634.06341.1982-.00798.4044-.21418.04743-.04743.07115-.11084.07116-.19023-.00001-.14278.59462-.21418 1.78389-.21418.04791 0 .41287-.02395 1.09488-.07188l.40441.28606c-.00001.15829.0237.34052.07115.54671.1268.11134.19021.23041.19022.35722-.00001.06341-.01574.12682-.04719.19022-.11134.33302-.24614.69774-.40441 1.09415-.04793.03195-.20669.28583-.47628.76163-.15829.14279-.41192.36472-.7609.66578-.79333.69797-1.2534 1.04696-1.38021 1.04696-.4124 0-.68201.06341-.80882.19022-.04744.04792-.25364.07188-.61859.07188-.38045.01549-.58665-.00847-.61859-.07188-.07939-.12681-.40441-.19022-.97508-.19022-.07938 0-.22217-.05542-.42837-.16627-.28558-.11132-.43635-.17473-.45232-.19022-.19023-.06341-.38445-.16651-.58265-.3093-.19822-.14278-.33701-.23402-.41639-.27372-.07939-.03968-.13493-.21817-.16663-.53545-.03171-.31728-.05554-.49166-.07151-.52312-.04744-.09535-.07116-.55542-.07116-1.38021 0-.82479.04768-1.3243.14303-1.49856.09487-.36495.20571-.80106.33253-1.30834.09535-.2541.21443-.5951.35722-1.02299.20619-.3969.42812-.83325.66578-1.30906.23814-.2696.49201-.58664.76162-.95112.14279-.28557.3727-.58712.68975-.90466.2696-.20618.56316-.4361.88069-.68974.03146.00001.17812-.07925.43998-.23778.26186-.15851.4165-.26173.46395-.30966.25362-.1268.5709-.30904.95184-.54671.30106-.0634.64981-.17448 1.04623-.33326.04791-.04742.18284-.11083.40478-.19022.22191-.07937.33288-.13092.33289-.15465-.00001-.0237.04367-.07126.13105-.14267.08736-.07138.13878-.11506.15428-.13105.20619-.42835.29356-.65826.26211-.68974-.01599-.01596-.03196-.12704-.04792-.33326-.03148-.15874-.0512-.24599-.05918-.26174-.00799-.01571-.07951-.03543-.21454-.05917zm5.96083 16.3324c-.04743.03146-.16638-.05191-.35685-.25012-.19046-.19821-.30143-.33701-.33289-.41639-.1273-.65005-.27009-1.34778-.42837-2.09319v-1.97484c0 .01597.03171-.28534.09512-.90393.0634-.61859.07913-.95959.04719-1.023-.01549-.03194-.01549-.28581 0-.76162.01597-.4758.00823-.73741-.02323-.78486-.03195-.04742-.03195-.3013 0-.76162l.04719-.80881c0-.07938-.00799-.35697-.02396-.83278l-.04719-.76089c-.00001-.14278.03969-.35697.11907-.64255.07938-.28557.11907-.49975.11907-.64256 0-.09485.03557-.32864.10673-.70136.07115-.37269.1227-.57501.15465-.60697.19022-.15875.38044-.32525.57067-.49952.03194-.03193.20256-.09147.51186-.17861.30929-.08711.4718-.14652.48754-.17824.01573-.03169.11895-.04754.30966-.04756l-.11907 1.76066-.19023 1.3323c-.04792.53922-.11931 1.35602-.21418 2.4504-.07939.69798-.11109 1.0627-.09511 1.09415.03146.00001.03146.2459 0 .73767-.04793.65006-.07188.92765-.07188.83277 0 .09488-.00787.24541-.0236.4516-.01573.2062-.0236.35698-.02359.45233-.00001.11085.0317.30506.09511.58265.0634.27759.09511.46794.09511.57103 0 .10311.02371.33713.07115.70209.03194.26961.03194.45209 0 .54744-.03146.0789-.04719.22943-.04719.4516 0 .11133.01585.27796.04755.49988.03171.22193.04756.3963.04756.52312 0 .41239-.01598.65029-.04792.7137-.17425.36496-.46757.75364-.87997 1.16603zm1.09415-14.75034c.12682.00001.33301-.03968.6186-.11908.58712-.03193 1.20571-.0796 1.85577-.14303.31703-.03144.68175-.07888 1.09415-.1423.33349-.01596.74588-.06364 1.23718-.14303h1.16603c.07937.00001.20232.02385.36883.07151.1665.04769.28944.07153.36883.07152.60261.00001.9516.04745 1.04696.1423.01548.01599.11047.03983.28497.07152.17449.03172.26173.05556.26174.07151.0634.0794.10309.23792.11907.47556-.04744.15878-.11085.34126-.19022.54744-.23815.23767-.40466.38046-.49952.42837-.17474.04745-.35722.08702-.54744.11871-.19023.03171-.50751.07128-.95184.11871-.28511.03195-.46734.04793-.54672.04791-.15877.00002-.40066.02386-.72568.07152-.32503.04769-.56693.07153-.72568.07152h-1.54648c-.82479.00001-1.23718.00001-1.23718 0-.15877.0155-.48379.06293-.97508.1423-.06341.00001-.22217.10311-.47629.3093-.07938.06342-.1348.09512-.16626.09511-.07938.00001-.11907-.07913-.11907-.23742 0-.11131.04356-.48414.13069-1.11847.08712-.63431.13867-.95147.15464-.95148zm-.61859 6.25706c.46031.11085.72992.16627.80882.16626.28557.00001.54743-.02371.78558-.07115.38044-.07937.68175-.15077.90393-.21418.04743-.03194.20994-.09547.48754-.19059.27758-.0951.44808-.14266.5115-.14267.0634.00001.25386-.01572.57139-.04719l.49952-.04792h.7609c.09535.00001.23426-.01185.41675-.03558.18247-.02371.32115-.03557.41602-.03557.11132 0 .28594.01186.52385.03557.23789.02373.41226.03559.52311.03558.0634.00001.18235.03171.35685.09511.17449.06342.28545.09512.3329.09511.17472.00001.2858.1428.33325.42837-.04745.00001-.15853.1428-.33325.42837-.50728.33302-.99107.49952-1.45137.49952-.53922 0-1.05459.06341-1.54611.19022-.49154.12682-.9832.25364-1.47497.38045l-1.30833.2621c-.25412.04744-.6428.14255-1.16603.28534-.79284.31704-1.15756.47556-1.09415.47556-.04792 0-.00049-.86423.1423-2.59271zm0 5.89984c.57116.11133.88045.167.92789.16699-.19023.00001-.0553.01973.40477.05918.46007.03945.71382.05143.76126.03594.0634-.03195.4044-.04792 1.023-.04792.22216 0 .49975-.03969.83277-.11907.60261-.14279.92764-.21418.97508-.21419-.07939.00001.2379-.11882.95185-.35649.52323-.17473.89593-.2621 1.11811-.2621h.9758c.19022 0 .36447.07939.52276.23814.28556.28559.40463.45209.35721.49952-.04745.06341-.14256.15078-.28533.26211-.36497.19022-.72993.28533-1.09488.28533-.06342 0-.25364.0714-.57067.21419-.36497.15828-.57117.2454-.61859.26137-.04745.01598-.24566.05567-.59464.11907l-.47628.11908c-.06342.01597-.11085.02396-.14231.02396-.55519.17425-1.01913.33277-1.39183.47555-.37271.14279-1.16192.37271-2.36763.68975-.53921.14279-.86424.19046-.97508.14303h-.87997c0-.04744.18224-.91191.54671-2.59344zM298.55762 644.95704c-.1273-.06389-.20668-.11157-.23814-.14303-.12682-.28558-.19023-.61085-.19023-.97581 0-.33301.06341-.71346.19023-1.14134.33301-.66651.57091-1.20596.7137-1.61836.22217-.38044.49976-.95934.83278-1.7367.03145-.12681.19397-.43998.48754-.9395.29356-.49952.44034-.79695.44034-.89231 0-.22217.22991-.77735.68975-1.66555.03194-.0634.30953-.55493.83277-1.4746.15876-.23813.34898-.58712.57067-1.04696.20619-.38043.51549-.9672.92789-1.7603.41239-.79307.61858-1.20159.61859-1.22556-.00001-.02395.02395-.29754.07188-.8208.28508-.17423.4436-.26136.47556-.26137h.64255c.26959.00001.47966-.07937.63021-.23815.15052-.15874.33687-.29354.55905-.4044.09535-.04742.28581-.07114.5714-.07116l.26138.35649.7137 1.47533.61859 1.7367.49952 2.11715c-.00001.04744.14278.72146.42837 2.02204.1268.55519.28532 1.14207.47556 1.76066.06339.03195.15064.35722.26173.9758.11108.6186.19046.92789.23815.92789.04766 0 .09522.24589.14267.73766.04742.39643.07113.64618.07115.74928-.00002.1031.03967.37271.11907.80881.07937.43612.13503.6699.16699.70136.03145.03195.03145.20645 0 .52348-.04793.2062-.09561.52348-.14303.95185-.03196.25363-.05568.39642-.07115.42837-.19072.19022-.35723.28533-.49952.28533h-.52348c-.11134-.01597-.2067-.12706-.28606-.33325-.04745-.11085-.07916-.18998-.09512-.23742v-.61859c-.00001-.36496-.07915-.92813-.23741-1.68951-.09537-.53921-.22243-1.12609-.38118-1.76066-.04744-.03146-.10286-.18998-.16626-.47556-.06342-.28557-.10698-.42836-.13069-.42837-.02373.00001-.08326-.22204-.17861-.66614-.09536-.44409-.15889-.66614-.19058-.66615-.03172.00001-.07129-.18634-.11871-.55906-.04745-.37269-.09512-.59075-.14303-.65416-.03148-.01597-.09876-.20232-.20184-.55906-.10311-.35672-.15466-.56292-.15465-.61859-.00001-.05565-.05955-.242-.17861-.55905-.11908-.31703-.17862-.49939-.17861-.54708-.00001-.04767-.05543-.20631-.16626-.47592-.11085-.2696-.16627-.44409-.16626-.52348-.00001-.07937-.05156-.24987-.15465-.5115-.10311-.26161-.16664-.39242-.19059-.39243-.02397.00001-.07165-.12692-.14303-.38081-.0714-.25386-.12283-.3808-.15429-.38081-.26961.00001-.45209-.04742-.54743-.1423-.04745-.04791-.23767-.00048-.57068.1423-.06341.06342-.15852.17451-.28533.33326-.26961.57116-.40442.94387-.40441 1.11811-.00001.04744-.11109.2972-.33325.74927-.22218.4521-.35311.69799-.39279.73767-.0397.0397-.26574.47992-.67813 1.32067-.11085.28559-.30107.68201-.57067 1.18927-.04793.28558-.14304.59488-.28534.92788-.11133.04744-.4366.62634-.9758 1.7367-.04744.11134-.27336.42075-.67777.92825-.40441.50751-.62246.76127-.65417.76126-.0317.00001-.0991.11097-.2022.33289-.1031.22194-.15465.3646-.15465.42801 0 .42837-.04768.73766-.14303.92789-.22217.45983-.33325.80881-.33325 1.04695 0 .17425-.0714.34875-.21419.52348-.09487.03146-.19797.06317-.30929.09511-.03147-.0634-.1106-.15053-.23742-.26137zm3.42548-6.59032c.50775.22218.78534.33713.83278.34487.04743.00775.19022.0276.42837.05954.25362.03147.38842.03147.4044 0 .28557-.04743.61859-.11084.99904-.19023.04791-.03194.1907-.0876.42837-.16699l.40441-.11907c.19021-.09486.42013-.1423.68974-.1423.0634 0 .23003.01586.49988.04755.26984.03171.41251.03958.42801.0236.01596-.01597.11119-.04368.2857-.08313.17448-.03944.28544-.08313.33289-.13105.31751-.31704.48402-.49153.49952-.52348.11131-.17425.20667-.30106.28606-.38045.17424-.71345.54694.40466 1.11811 3.35433-.01599-.03146-.06366-.03146-.14303 0-.06342.01598-.13482.03994-.21419.07188-.03147 0-.11073-.08325-.23778-.24976-.12706-.1665-.19059-.24976-.19058-.24976-.26962-.2696-.45186-.4044-.54671-.40441-.03196.00001-.17475-.01597-.42837-.04792l-.40441-.02396c-.23815.00001-.42862.0714-.5714.21419-.03147.03195-.17014.10734-.41602.22616-.2459.11883-.39268.17825-.44035.17824-.04768.00001-.26973.06342-.66614.19023-.39643.12682-.6105.2062-.64219.23814-.03171.03195-.20621.08749-.52348.16663-.31729.07914-.5155.11871-.59463.11871-.07915 0-.25751.04756-.5351.14267-.2776.09511-.45608.14267-.53546.14266.01597.00001-.3093.11109-.9758.33326-.04744.01597-.34875.13505-.90393.35721-.74541.38045-1.09439.57068-1.04696.57067-.04743.00001.74565-1.356 2.37925-4.06803zm17.53546 6.84008c-.00001.03969-.12707.08325-.38117.13069-.23767.04743-.3565.04743-.35649 0-.00001.04743-.25388-.17474-.76162-.66651-.17426-.12682-.42789-.33302-.7609-.6186-.45983-.49128-.84851-.90368-1.16603-1.23718-.25364-.30106-.59463-.76089-1.023-1.37948-.25363-.41239-.57866-.97556-.97508-1.68951-.3969-.88819-.59536-1.44313-.59535-1.66483-.00001-.04791-.07915-.38116-.23742-.99976l-.2621-.92789c-.00001-.15827-.03171-.40004-.09512-.72532-.0634-.32525-.09511-.56703-.09511-.72532 0-.07937-.00799-.32525-.02396-.73766l-.04719-.76162c0-.65004.01573-1.01476.04719-1.09415.19071-.28557.38118-.56316.5714-.83278.22217-.04742.38069-.07113.47556-.07115-.01597.00002.07914.07915.28534.23742.09535.07939.1907.15877.28606.23814.03146.03196.07889.17475.1423.42837.07938.31705.11907.49929.11907.54671 0 .60312.03969 1.17427.11908 1.71347l.21418 1.45136.33325 1.35553.42765 1.23718.47628 1.09488.54671.95112c.19071.34899.37319.62658.54744.83278.04743.01597.1227.08737.2258.21418.1031.12682.17062.19023.20257.19022.2696.23815.4044.3335.40441.28606.04743-.11132.19021-.38891.42836-.83277.33301-.8727.49952-1.42788.49952-1.66555 0-.17473.10309-.53569.3093-1.0829.20619-.54719.30929-.89194.30929-1.03425 0-.03194.10709-.28581.32128-.76162.21417-.47579.32127-.73741.32127-.78486 0-.14278.19022-.58687.57068-1.33229.17472-.49176.38092-1.00726.61859-1.54648.04742-.03193.29331-.492.73766-1.38021.36495-.72942.54743-1.21321.54744-1.45136.01548-.07937.05492-.27758.11834-.59464.17473-.04742.36519-.11881.5714-.21418.11083-.11083.35672-.15826.73766-.1423-.00001.03147.04755.10275.14267.21382.0951.1111.14266.17463.14267.19058-.00001.09489.01185.22558.03558.39207.0237.16652.03556.28946.03557.36883-.00001.04793-.1428.27785-.42836.68974-.09489.23816-.17802.46033-.2494.66651-.07141.20621-.4164 1.04673-1.03498 2.52156-.55519 1.36401-.83278 2.06984-.83277 2.11751-.00001.04769-.08327.33326-.24976.85674-.16652.52348-.26575.80095-.29768.83241-.1428.50775-.30132 1.05495-.47556 1.64159-.4124.82479-.6186 1.35625-.61859 1.59439-.00001.06341-.04757.29732-.14267.70173-.09512.40441-.15865.63831-.19059.70172-.04744.28558-.11884.65828-.21418 1.11811-.04744.09535-.07116.42062-.07115.9758-.19024.26961-.28535.42426-.28534.46395zm6.68688-.24976c-.1273-.06389-.20668-.11157-.23814-.14303-.12682-.28558-.19023-.61085-.19023-.97581 0-.33301.06341-.71346.19023-1.14134.33301-.66651.57091-1.20596.7137-1.61836.22217-.38044.49976-.95934.83277-1.7367.03146-.12681.19398-.43998.48754-.9395.29357-.49952.44035-.79695.44035-.89231 0-.22217.22991-.77735.68974-1.66555.03195-.0634.30954-.55493.83278-1.4746.15876-.23813.34898-.58712.57067-1.04696.20619-.38043.51549-.9672.92789-1.7603.41238-.79307.61858-1.20159.61859-1.22556-.00001-.02395.02395-.29754.07188-.8208.28508-.17423.4436-.26136.47556-.26137h.64255c.26959.00001.47966-.07937.6302-.23815.15053-.15874.33688-.29354.55906-.4044.09534-.04742.28581-.07114.5714-.07116l.26137.35649.71371 1.47533.61859 1.7367.49952 2.11715c-.00001.04744.14277.72146.42836 2.02204.12681.55519.28533 1.14207.47556 1.76066.0634.03195.15065.35722.26174.9758.11108.6186.19046.92789.23815.92789.04766 0 .09522.24589.14267.73766.04742.39643.07113.64618.07115.74928-.00002.1031.03967.37271.11907.80881.07937.43612.13503.6699.16699.70136.03145.03195.03145.20645 0 .52348-.04793.2062-.09561.52348-.14303.95185-.03196.25363-.05568.39642-.07115.42837-.19073.19022-.35723.28533-.49952.28533h-.52348c-.11134-.01597-.2067-.12706-.28606-.33325-.04745-.11085-.07916-.18998-.09512-.23742v-.61859c-.00001-.36496-.07915-.92813-.23741-1.68951-.09537-.53921-.22243-1.12609-.38118-1.76066-.04744-.03146-.10287-.18998-.16626-.47556-.06342-.28557-.10698-.42836-.13069-.42837-.02373.00001-.08326-.22204-.17861-.66614-.09536-.44409-.15889-.66614-.19058-.66615-.03172.00001-.07129-.18634-.11871-.55906-.04745-.37269-.09513-.59075-.14303-.65416-.03148-.01597-.09876-.20232-.20184-.55906-.10311-.35672-.15466-.56292-.15465-.61859-.00001-.05565-.05955-.242-.17861-.55905-.11908-.31703-.17862-.49939-.17861-.54708-.00001-.04767-.05543-.20631-.16626-.47592-.11085-.2696-.16628-.44409-.16627-.52348-.00001-.07937-.05155-.24987-.15464-.5115-.10311-.26161-.16664-.39242-.19059-.39243-.02397.00001-.07165-.12692-.14303-.38081-.0714-.25386-.12283-.3808-.15429-.38081-.26961.00001-.45209-.04742-.54743-.1423-.04745-.04791-.23767-.00048-.57068.1423-.06341.06342-.15852.17451-.28533.33326-.26961.57116-.40442.94387-.40441 1.11811-.00001.04744-.11109.2972-.33325.74927-.22218.4521-.35311.69799-.3928.73767-.03969.0397-.26573.47992-.67812 1.32067-.11085.28559-.30107.68201-.57067 1.18927-.04793.28558-.14304.59488-.28534.92788-.11133.04744-.4366.62634-.97581 1.7367-.04743.11134-.27336.42075-.67776.92825-.40441.50751-.62246.76127-.65417.76126-.0317.00001-.0991.11097-.2022.33289-.1031.22194-.15465.3646-.15465.42801 0 .42837-.04768.73766-.14303.92789-.22217.45983-.33326.80881-.33325 1.04695-.00001.17425-.0714.34875-.21419.52348-.09487.03146-.19797.06317-.30929.09511-.03147-.0634-.1106-.15053-.23742-.26137zm3.42548-6.59032c.50775.22218.78534.33713.83278.34487.04743.00775.19022.0276.42837.05954.25362.03147.38842.03147.4044 0 .28557-.04743.61859-.11084.99904-.19023.04791-.03194.1907-.0876.42837-.16699l.40441-.11907c.19021-.09486.42013-.1423.68974-.1423.0634 0 .23003.01586.49988.04755.26984.03171.41251.03958.42801.0236.01596-.01597.11119-.04368.2857-.08313.17448-.03944.28544-.08313.33289-.13105.31751-.31704.48402-.49153.49952-.52348.11131-.17425.20667-.30106.28606-.38045.17424-.71345.54694.40466 1.11811 3.35433-.01599-.03146-.06366-.03146-.14303 0-.06342.01598-.13482.03994-.21419.07188-.03147 0-.11073-.08325-.23778-.24976-.12707-.1665-.19059-.24976-.19058-.24976-.26962-.2696-.45186-.4044-.54671-.40441-.03196.00001-.17475-.01597-.42837-.04792l-.40441-.02396c-.23815.00001-.42862.0714-.5714.21419-.03147.03195-.17014.10734-.41602.22616-.2459.11883-.39268.17825-.44035.17824-.04768.00001-.26973.06342-.66615.19023-.39642.12682-.61049.2062-.64218.23814-.03171.03195-.20621.08749-.52348.16663-.31729.07914-.5155.11871-.59463.11871-.07915 0-.25751.04756-.5351.14267-.2776.09511-.45608.14267-.53546.14266.01597.00001-.3093.11109-.9758.33326-.04744.01597-.34875.13505-.90393.35721-.74541.38045-1.09439.57068-1.04696.57067-.04743.00001.74565-1.356 2.37925-4.06803zm13.4667-7.58935c-.14231.09488-.30882.21371-.49952.35648-.06341.06343-.17425.2856-.33253.66651-.07938.19024-.19047.65007-.33325 1.37949-.09536.50776-.16675 1.17403-.21419 1.9988l-.07115 1.35626c-.03195.65006-.03195 1.18128 0 1.59367-.01597.01598-.02396.42837-.02396 1.23718.01597.07939.03969.31729.07115.7137.03195.38094.03195.58714 0 .61859.04744.42837.07115.89619.07116 1.40345-.03147.03195-.0472.34923-.0472.95185 0 .36496.0714.61883.21419.76162.01597.01549.04767.13831.09511.36847.04743.23015.087.36108.11871.39279.0317.0317.09523.19034.19058.47592l.40441.19022c.19022-.0634.32103-.14666.39243-.24976.07139-.10309.14678-.21805.22616-.34487 0-.38093.01984-.57926.05954-.59499.03968-.01573.05953-.09499.05953-.23778 0-.19071-.01597-.46031-.04792-.80882l.07188-1.04695c0-.07938.01573-.32527.0472-.73767l.02396-.76162c-.00001-.87222.02371-1.35576.07115-1.45064-.01598-.50774.00774-1.08688.07115-1.73743.03194-.0634.04792-.4678.04792-1.21322l.14303-1.23718.07115-1.23718c0-.12681.02372-.28533.07116-.47556l.14303-.68975.07115-.47628-.21418-.61859-.28534-.47556-.26138-.14231-.40513.07116zm4.19001 14.27478c0 .06341-.05555.01972-.16663-.13105-.11109-.15078-.17461-.24988-.19059-.29732-.04743-.11132-.15852-.41263-.33325-.90392-.09487-.26961-.14231-.72169-.14231-1.35626 0-2.06196.0714-3.29914.21419-3.71154.04743-.36496.13456-.91215.26137-1.64159.14279-.41239.21419-1.00726.21419-1.78462 0-.12681.02771-.39242.08313-.79684.05542-.40439.0991-.62245.13105-.65417.03195-.03169.08349-.21405.15465-.54707.07115-.333.10673-.55106.10673-.65417 0-.10308.03569-.27358.10709-.5115.07139-.23788.10709-.41238.10709-.52348 0-.11107.02384-.27757.07152-.49952.04767-.22191.07151-.38055.07151-.47592 0-.09534.11108-.27782.33326-.54744.28557-.14277.44409-.19021.47556-.1423l.35721.35649c.04743.11134.11883.24614.21418.4044.03146.04794.04719.27785.0472.68975-.00001.77736.00798 1.13434.02396 1.07092-.01598.44435-.06366.91216-.14303 1.40344-.01598.01599-.05954.32927-.13069.93987-.07116.61061-.11871.92789-.14267.95184-.02396.02397-.06365.31742-.11907.88033-.05543.56294-.08314.90394-.08313 1.023-.00001.11908-.0397.41252-.11908.88033-.07938.46782-.13891.73344-.1786.79684-.0397.06341-.05954.58689-.05954 1.57043v1.23719l.19023.28533h2.21298c.07938.00001.27372-.04755.58302-.14267.30929-.0951.5075-.14266.59463-.14266.08712 0 .25362-.03183.49952-.09548.24588-.06365.4165-.09547.51186-.09547.03146 0 .22168-.06341.57067-.19023.34898-.12681.54332-.17836.58302-.15465.03968.02373.19033-.01596.45196-.11907.26161-.10309.42812-.15464.49952-.15464.07139 0 .20619-.02372.40441-.07116.1982-.04743.34498-.07115.44034-.07115h.47556c.03194 0 .10733.0714.22617.21418.11882.1428.17823.22992.17824.26138v.61859c-.00001.01598-.04357.09935-.13069.25012-.08713.15078-.1307.25388-.13068.3093-.00002.05542-.15878.17026-.47629.34451-.25364.01597-.57867.05566-.97508.11907-.19023.01597-.45984.06365-.80882.14303-.50775.2062-1.28486.50751-2.33133.90393-1.2217.41239-2.02277.61859-2.40321.61859-.12682 0-.32116.01984-.58301.05953-.26187.03969-.45621.05954-.58302.05954-.41239 0-.64231.02372-.68974.07115-.03147.03195-.11859.03195-.26138 0-.09535-.03146-.16675-.04719-.21418-.04719zm11.35172-.09511c-.1273-.06389-.20668-.11157-.23814-.14303-.12681-.28558-.19022-.61085-.19022-.97581 0-.33301.06341-.71346.19022-1.14134.33301-.66651.57091-1.20596.7137-1.61836.22217-.38044.49976-.95934.83278-1.7367.03146-.12681.19397-.43998.48754-.9395.29356-.49952.44034-.79695.44035-.89231-.00001-.22217.22991-.77735.68974-1.66555.03194-.0634.30953-.55493.83277-1.4746.15876-.23813.34898-.58712.57068-1.04696.20619-.38043.51548-.9672.92788-1.7603.41239-.79307.61859-1.20159.61859-1.22556 0-.02395.02396-.29754.07188-.8208.28509-.17423.44361-.26136.47556-.26137h.64255c.2696.00001.47967-.07937.63021-.23815.15052-.15874.33688-.29354.55905-.4044.09535-.04742.28581-.07114.5714-.07116l.26138.35649.7137 1.47533.61859 1.7367.49952 2.11715c-.00001.04744.14278.72146.42837 2.02204.1268.55519.28532 1.14207.47556 1.76066.06339.03195.15064.35722.26174.9758.11107.6186.19045.92789.23814.92789.04766 0 .09522.24589.14267.73766.04742.39643.07114.64618.07115.74928-.00001.1031.03968.37271.11907.80881.07937.43612.13503.6699.16699.70136.03145.03195.03145.20645 0 .52348-.04793.2062-.09561.52348-.14303.95185-.03196.25363-.05567.39642-.07115.42837-.19072.19022-.35723.28533-.49952.28533h-.52348c-.11134-.01597-.20669-.12706-.28606-.33325-.04745-.11085-.07915-.18998-.09511-.23742v-.61859c-.00001-.36496-.07915-.92813-.23742-1.68951-.09536-.53921-.22242-1.12609-.38117-1.76066-.04745-.03146-.10287-.18998-.16627-.47556-.06342-.28557-.10698-.42836-.13069-.42837-.02372.00001-.08326-.22204-.1786-.66614-.09537-.44409-.1589-.66614-.19059-.66615-.03171.00001-.07128-.18634-.11871-.55906-.04744-.37269-.09512-.59075-.14303-.65416-.03147-.01597-.09875-.20232-.20184-.55906-.10311-.35672-.15466-.56292-.15465-.61859-.00001-.05565-.05954-.242-.17861-.55905-.11908-.31703-.17861-.49939-.1786-.54708-.00001-.04767-.05543-.20631-.16627-.47592-.11085-.2696-.16627-.44409-.16626-.52348-.00001-.07937-.05156-.24987-.15465-.5115-.10311-.26161-.16664-.39242-.19059-.39243-.02396.00001-.07164-.12692-.14303-.38081-.0714-.25386-.12283-.3808-.15428-.38081-.26962.00001-.45209-.04742-.54744-.1423-.04744-.04791-.23767-.00048-.57067.1423-.06342.06342-.15853.17451-.28534.33326-.26961.57116-.40441.94387-.40441 1.11811 0 .04744-.11109.2972-.33325.74927-.22218.4521-.35311.69799-.39279.73767-.0397.0397-.26574.47992-.67813 1.32067-.11085.28559-.30107.68201-.57067 1.18927-.04792.28558-.14304.59488-.28534.92788-.11133.04744-.4366.62634-.9758 1.7367-.04744.11134-.27336.42075-.67776.92825-.40442.50751-.62247.76127-.65417.76126-.03171.00001-.09911.11097-.20221.33289-.1031.22194-.15465.3646-.15464.42801-.00001.42837-.04768.73766-.14303.92789-.22218.45983-.33326.80881-.33326 1.04695 0 .17425-.0714.34875-.21418.52348-.09487.03146-.19797.06317-.3093.09511-.03146-.0634-.1106-.15053-.23742-.26137zm3.42549-6.59032c.50774.22218.78533.33713.83277.34487.04743.00775.19022.0276.42837.05954.25363.03147.38843.03147.40441 0 .28557-.04743.61858-.11084.99904-.19023.04791-.03194.1907-.0876.42836-.16699l.40441-.11907c.19022-.09486.42013-.1423.68974-.1423.0634 0 .23003.01586.49989.04755.26983.03171.4125.03958.428.0236.01596-.01597.1112-.04368.2857-.08313.17448-.03944.28545-.08313.33289-.13105.31751-.31704.48402-.49153.49952-.52348.11132-.17425.20667-.30106.28606-.38045.17424-.71345.54695.40466 1.11811 3.35433-.01598-.03146-.06366-.03146-.14303 0-.06342.01598-.13481.03994-.21418.07188-.03148 0-.11074-.08325-.23778-.24976-.12707-.1665-.1906-.24976-.19059-.24976-.26961-.2696-.45185-.4044-.54671-.40441-.03196.00001-.17475-.01597-.42837-.04792l-.40441-.02396c-.23815.00001-.42861.0714-.57139.21419-.03147.03195-.17015.10734-.41603.22616-.24589.11883-.39268.17825-.44034.17824-.04769.00001-.26974.06342-.66615.19023-.39643.12682-.61049.2062-.64219.23814-.03171.03195-.2062.08749-.52348.16663-.31729.07914-.5155.11871-.59463.11871-.07914 0-.25751.04756-.53509.14267-.2776.09511-.45609.14267-.53546.14266.01596.00001-.3093.11109-.97581.33326-.04744.01597-.34875.13505-.90393.35721-.7454.38045-1.09439.57068-1.04695.57067-.04744.00001.74564-1.356 2.37925-4.06803zm12.01605 6.94681c-.19071-.12682-.42087-.29333-.69047-.49952-.07938-.36496-.15078-.68224-.21418-.95185-.12682-.49177-.19023-1.60988-.19023-3.35433v-2.87877c0-.04743.00799-.34075.02396-.87997l.02396-.83277c0-.33301.04756-.79695.14267-1.39183.09511-.59487.14267-1.05082.14267-1.36787 0-.12729.07139-.51597.21418-1.16603.31704-.333.50726-.53121.57067-.59463.06341-.0634.25388-.19046.5714-.38118.19022-.09485.38045-.19771.57067-.30857l.40441-.28606-.76089 5.75754c-.00001-.1268-.02385.0754-.07152.60661-.04768.53124-.06353 1.10614-.04756 1.72473l.0472 2.47436c-.00001.09536.05554.41663.16662.96383.11109.54719.17462.82079.19059.82079.22217.4758.33325.84052.33326 1.09415-.00001.04792-.11109.30179-.33326.76162-.28558.28558-.44821.44023-.4879.46395-.03969.02371-.24178.09898-.60625.2258zm1.71274-15.22591c0 .04745.38867-.1193 1.16603-.50024 1.07842-.5392 1.57793-.8088 1.49856-.80882-.26961.00002-.05555-.03955.64219-.11871.69772-.07912 1.05457-.11094 1.07055-.09547.03194.03196.24213.07564.63057.13105.38843.05544.63831.08315.74964.08313.04743.00002.32502.1825.83278.54744l.47556 1.09415v1.38021c-.00001.04745-.09512.31306-.28534.79684-.19023.4838-.30132.73368-.33325.74964-.26962.45984-.6186.99905-1.04696 1.61763-.12682.17426-.53123.60239-1.21322 1.28438l-.85674.78558c-.11085.14279-.2932.36484-.54707.66614-.25388.30132-.45197.49166-.59427.57104-.27009.09488-.53994.19797-.80954.30929l-1.80785-.2621h-1.023c-.03147.00001-.11859-.37269-.26138-1.11811-.03195-.04743-.03993-.20595-.02396-.47556 0-.12681.00786-.2656.0236-.41639.01573-.15076.07926-.24188.19058-.27335.04744-.01597.11883-.02395.21419-.02396.0634.00001.3013.07915.7137.23742.2696.1273.42014.1987.4516.21418.03194.03195.159.03195.38118 0 .20619-.03145.34874-.04719.42764-.04719.69796-.34898 1.10261-.56316 1.21394-.64255.03146-.03146.49129-.42788 1.37949-1.18927.03194-.06339.42062-.5709 1.16603-1.52251.14278-.15875.32502-.37294.54671-.64256.0634-.11131.09511-.1827.09512-.21418-.00001-.55517-.04745-.87245-.14231-.95184-.31705-.333-.53922-.49951-.66651-.49952-.0789.00001-.2056.01187-.38008.03557-.1745.02373-.30144.03559-.38082.03558-.63457.00001-.99952.02397-1.09487.07188-.15829.07891-.523.22145-1.09415.42764-.23767.15877-.51526.34125-.83278.54744-.26961.1428-.66603.35698-1.18926.64255-.17474.09488-.27784.1503-.3093.16626.04744-.11083.12682-.28532.23815-.52348.15827-.31702.34051-.79283.54671-1.4274.15876-.47579.23814-.68973.23814-.64183zm-1.52252 12.96573.42837-.6186.66579.04792c.66602.04744.91989.07116.76162.07116.04743 0 .30106-.03171.76089-.09512l.68975-.09511c.12729.00001.38915-.07139.78558-.21418.39641-.14279.65803-.21418.78485-.21418.03194 0 .20256-.0674.51187-.20221.30928-.1348.47978-.2022.51149-.2022.0317 0 .16638-.07139.40405-.21419.15875-.07937.27782-.14278.35721-.19022.17425-.36495.24564-.57115.21419-.61859-.04793-.04743-.21444-.18223-.49952-.40441-.84077-.23814-1.80835-.65053-2.90273-1.23718-.36497-.09535-.76937-.21442-1.21323-.35721-.06341-.03146-.21806-.07103-.46394-.11871-.24589-.04767-.38481-.05554-.41675-.0236.09535-.19022.19071-.38843.28606-.59463.4758-.36495 1.19725-.85673 2.16435-1.47533.36495-.19021.55541-.27734.57139-.26137 0 .03147.0674.13844.20221.32091.13479.18249.20219.28559.2022.3093-.00001.02372.07925.15054.23778.38044.15851.22993.23777.34488.23778.34488-.04744 0 .36495.05567 1.23718.16699l1.23718.33252.95185.69047.57067.7609.19023.95185-.19023.97508-.35649.47628c-.31753.4124-.50001.64231-.54743.68974-.23767.12682-.48344.26163-.7373.40441-.25389.14279-.76151.35698-1.52288.64255-.38046.15877-1.02277.38069-1.92693.66579-.682.17473-1.04672.2621-1.09415.2621-.58713 0-.92813.04743-1.023.1423-.2062.04792-.46007.11932-.76162.21419-.07939.04792-.30543.11943-.67813.21454-.3727.09512-.55906.1584-.55905.18987l.21418-1.16531-.28534-.95184zm12.42047 1.9988c0 .06341-.05554.01972-.16663-.13105-.11108-.15078-.17461-.24988-.19058-.29732-.04744-.11132-.15852-.41263-.33326-.90392-.09487-.26961-.1423-.72169-.1423-1.35626 0-2.06196.07139-3.29914.21418-3.71154.04743-.36496.13456-.91215.26138-1.64159.14278-.41239.21418-1.00726.21418-1.78462 0-.12681.02771-.39242.08313-.79684.05542-.40439.09911-.62245.13105-.65417.03195-.03169.0835-.21405.15465-.54707.07115-.333.10673-.55106.10673-.65417 0-.10308.0357-.27358.10709-.5115.07139-.23788.10709-.41238.10709-.52348 0-.11107.02384-.27757.07152-.49952.04767-.22191.07151-.38055.07152-.47592-.00001-.09534.11108-.27782.33325-.54744.28558-.14277.4441-.19021.47556-.1423l.35721.35649c.04744.11134.11883.24614.21419.4044.03146.04794.04719.27785.04719.68975 0 .77736.00798 1.13434.02396 1.07092-.01598.44435-.06365.91216-.14303 1.40344-.01598.01599-.05954.32927-.13069.93987-.07115.61061-.11871.92789-.14267.95184-.02396.02397-.06365.31742-.11907.88033-.05542.56294-.08313.90394-.08313 1.023 0 .11908-.03969.41252-.11907.88033-.07939.46782-.13892.73344-.17861.79684-.03969.06341-.05954.58689-.05953 1.57043v1.23719c-.00001 0 .0634.09511.19022.28533h2.21299c.07937.00001.27371-.04755.58301-.14267.30929-.0951.5075-.14266.59463-.14266.08712 0 .25363-.03183.49952-.09548.24588-.06365.4165-.09547.51186-.09547.03146 0 .22168-.06341.57068-.19023.34897-.12681.54331-.17836.58301-.15465.03968.02373.19034-.01596.45196-.11907.26161-.10309.42812-.15464.49952-.15464.07139 0 .20619-.02372.40441-.07116.1982-.04743.34498-.07115.44035-.07115h.47556c.03193 0 .10732.0714.22616.21418.11882.1428.17823.22992.17825.26138v.61859c-.00002.01598-.04358.09935-.13069.25012-.08714.15078-.1307.25388-.13069.3093-.00001.05542-.15877.17026-.47629.34451-.25364.01597-.57867.05566-.97508.11907-.19023.01597-.45983.06365-.80881.14303-.50776.2062-1.28487.50751-2.33133.90393-1.2217.41239-2.02277.61859-2.40322.61859-.12682 0-.32115.01984-.58301.05953-.26186.03969-.4562.05954-.58301.05954-.4124 0-.64232.02372-.68975.07115-.03146.03195-.11859.03195-.26137 0-.09536-.03146-.16675-.04719-.21419-.04719zm12.35077.07115c-.04744.03146-.16639-.05191-.35685-.25012-.19047-.19821-.30144-.33701-.3329-.41639-.1273-.65005-.27009-1.34778-.42836-2.09319v-1.97484c0 .01598.0317-.28533.09511-.90393.06341-.61858.07914-.95958.04719-1.023-.01549-.03194-.01549-.28581 0-.76162.01597-.47579.00823-.73741-.02323-.78485-.03195-.04743-.03195-.30131 0-.76163l.04719-.80881c0-.07937-.00799-.35696-.02396-.83278l-.04719-.76089c0-.14278.03969-.35696.11907-.64255.07938-.28557.11907-.49975.11907-.64255 0-.09486.03558-.32865.10673-.70136.07115-.37269.1227-.57502.15465-.60698.19022-.15874.38044-.32525.57067-.49952.03194-.03193.20256-.09146.51186-.1786.30929-.08711.47181-.14653.48754-.17825.01573-.03169.11895-.04754.30966-.04755l-.11907 1.76066-.19022 1.33229c-.04793.53922-.11932 1.35602-.21419 2.45041-.07938.69798-.11109 1.06269-.09511 1.09415.03146 0 .03146.24589 0 .73766-.04792.65006-.07188.92765-.07188.83277 0 .09488-.00787.24541-.0236.4516-.01573.20621-.02359.35698-.02359.45233 0 .11085.0317.30507.09511.58265.06341.2776.09511.46794.09511.57104 0 .1031.02372.33713.07115.70208.03195.26961.03195.45209 0 .54744-.03146.09487-.04719.24541-.04719.4516 0 .11133.01585.27796.04756.49988.0317.22193.04755.39631.04755.52312 0 .4124-.01597.6503-.04792.7137-.17425.36496-.46757.75364-.87996 1.16603zm1.09415-14.75034c.12681.00001.33301-.03968.61859-.11907.58712-.03193 1.20571-.07961 1.85577-.14303.31704-.03145.68175-.07889 1.09415-.14231.33349-.01596.74589-.06363 1.23718-.14303h1.16603c.07938.00001.20232.02385.36884.07151.16649.0477.28944.07154.36883.07152.6026.00002.95159.04745 1.04695.14231.01548.01598.11047.03982.28498.07151.17448.03172.26173.05556.26174.07152.06339.07939.10308.23791.11907.47556-.04745.15877-.11086.34125-.19023.54743-.23815.23768-.40466.38047-.49952.42837-.17474.04745-.35722.08702-.54743.11871-.19024.03172-.50752.07129-.95185.11871-.2851.03196-.46734.04793-.54671.04792-.15877.00001-.40067.02385-.72568.07151-.32504.04769-.56693.07153-.72569.07152h-1.54647c-.8248.00001-1.23719.00001-1.23719 0-.15876.0155-.48379.06294-.97508.1423-.06341.00002-.22217.10311-.47628.3093-.07939.06342-.13481.09512-.16627.09511-.07938.00001-.11907-.07913-.11907-.23742 0-.11131.04356-.48413.13069-1.11847.08712-.63431.13867-.95147.15465-.95148zm-.61859 6.25706c.46031.11085.72991.16627.80881.16626.28558.00001.54744-.02371.78558-.07115.38045-.07937.68176-.15077.90393-.21418.0634-.03194.22991-.09547.49952-.19059.2696-.0951.43611-.14266.49952-.14267.0634.00001.25387-.01572.5714-.04719l.49952-.04792h.76089c.09535.00001.23427-.01185.41675-.03558.18247-.0237.32115-.03556.41603-.03557.11132.00001.28593.01187.52384.03557.23789.02373.41226.03559.52311.03558.0634.00001.18235.03171.35686.09511.17448.06342.28544.09512.33289.09512.17472 0 .28581.14279.33325.42836-.04744.00001-.15853.1428-.33325.42837-.50728.33302-.99106.49953-1.45137.49952-.53922.00001-1.05459.06341-1.54611.19022-.49154.12683-.98319.25364-1.47496.38045l-1.30834.2621c-.25412.04744-.64279.14256-1.16603.28534-.79284.31704-1.15756.47556-1.09415.47556-.04792 0-.00048-.86423.14231-2.59271zm0 5.89985c.57115.11133.88045.16699.92788.16699-.19022 0-.0553.01972.40477.05917.46007.03945.71382.05143.76126.03594.06341-.03194.40441-.04792 1.023-.04792.22217 0 .49976-.03969.83278-.11907.60261-.14279.92763-.21418.97508-.21418-.07939 0 .23789-.11883.95184-.35649.52323-.17473.89593-.2621 1.11811-.26211h.97581c.19021.00001.36446.07939.52275.23815.28557.28558.40464.45208.35721.49952-.04744.06341-.14255.15077-.28533.2621-.36497.19023-.72993.28534-1.09488.28534-.06342 0-.25364.07139-.57067.21418-.36497.15828-.57117.2454-.61859.26138-.04745.01597-.24566.05566-.59463.11907l-.47629.11907c-.0789.01597-.12634.02396-.1423.02396-.55519.17425-1.01914.33277-1.39183.47556-.37271.14279-1.16192.3727-2.36764.68974-.53921.14279-.86424.19047-.97508.14303h-.87997c0-.04743.18224-.91191.54672-2.59343z" style="font-size:23.79106522px;font-style:normal;font-variant:normal;font-weight:400;font-stretch:normal;text-align:center;text-anchor:middle;fill:#404040;fill-opacity:1;stroke:none;stroke-width:1px;stroke-linecap:butt;stroke-linejoin:miter;stroke-opacity:1;font-family:Comic Strip;-inkscape-font-specification:Comic Strip" transform="translate(-252.5020379 -552.2483278)"/>
</svg>
